<?xml version="1.0" standalone="no"?>
<!DOCTYPE svg PUBLIC "-//W3C//DTD SVG 20010904//EN"
 "http://www.w3.org/TR/2001/REC-SVG-20010904/DTD/svg10.dtd">
<svg version="1.0" xmlns="http://www.w3.org/2000/svg"
 width="512.000000pt" height="512.000000pt" viewBox="0 0 512.000000 512.000000"
 preserveAspectRatio="xMidYMid meet">
<metadata>
Created by potrace 1.14, written by Peter Selinger 2001-2017
</metadata>
<g transform="translate(0.000000,512.000000) scale(0.100000,-0.100000)"
fill="#000000" stroke="none">
<path d="M2452 5104 c-107 -28 -202 -103 -259 -204 -92 -164 -64 -365 70 -501
57 -58 109 -88 192 -110 260 -71 517 124 524 396 4 191 -106 347 -293 415 -48
18 -176 20 -234 4z m226 -163 c168 -86 204 -308 71 -440 -89 -90 -246 -101
-347 -25 -49 37 -59 50 -88 112 -84 181 62 392 261 379 35 -3 78 -13 103 -26z"/>
<path d="M2509 4139 c-57 -9 -136 -43 -167 -72 l-24 -22 -1086 0 c-598 -1
-1098 -5 -1112 -9 -46 -16 -82 -49 -102 -93 -52 -119 32 -313 167 -386 54 -29
80 -37 145 -44 30 -3 56 -6 56 -7 1 0 4 -27 7 -59 16 -180 170 -317 367 -326
11 -1 17 -13 18 -38 11 -171 140 -316 304 -341 29 -4 259 -7 510 -7 455 1 458
1 480 22 27 28 27 79 -1 107 -21 20 -30 21 -499 22 -332 1 -486 5 -505 13 -79
31 -137 110 -137 184 l0 37 163 1 c180 1 191 2 214 20 36 31 33 92 -7 116 -13
9 -101 13 -304 13 l-285 1 -53 27 c-70 36 -109 91 -111 158 l-2 49 695 2 c509
2 701 6 717 14 30 16 44 60 29 90 -24 50 -8 49 -865 49 -796 0 -805 0 -848 21
-54 26 -97 78 -114 136 -23 85 -121 78 1032 78 l1024 0 1 -165 c0 -91 4 -231
8 -312 l8 -148 -369 0 c-358 0 -370 -1 -391 -20 -32 -30 -30 -82 4 -109 26
-20 38 -21 395 -21 l369 0 1 -22 c0 -13 2 -50 4 -83 2 -33 6 -125 10 -205 3
-80 8 -179 10 -220 3 -41 7 -127 10 -190 2 -63 7 -158 10 -210 3 -52 7 -138
10 -190 l5 -95 -98 0 c-53 0 -119 -3 -146 -7 -111 -17 -217 -97 -271 -206 -51
-101 -42 -257 18 -347 44 -65 80 -95 114 -95 73 0 95 70 42 136 -43 53 -59 95
-59 151 1 90 62 176 146 203 36 12 237 20 254 10 7 -4 19 -200 24 -379 l1 -45
-66 -12 c-132 -24 -227 -96 -281 -210 -79 -169 -15 -375 147 -469 65 -38 97
-40 133 -10 17 14 29 31 27 38 -2 7 -6 24 -9 39 -5 21 -19 34 -55 53 -199 100
-156 381 64 412 25 3 45 2 46 -3 0 -5 2 -16 3 -24 2 -8 7 -87 10 -175 4 -88 9
-194 11 -235 6 -97 13 -243 20 -400 8 -179 12 -208 35 -246 65 -104 228 -107
295 -5 27 40 32 70 40 256 9 213 14 315 19 400 3 44 8 145 12 225 3 80 7 159
8 175 l1 30 156 5 c150 5 157 6 221 38 126 62 200 175 206 317 3 70 1 83 -18
108 -16 20 -30 27 -55 27 -52 0 -75 -31 -75 -99 0 -75 -14 -119 -50 -163 -52
-63 -78 -71 -237 -76 l-142 -4 4 56 c2 31 7 127 10 214 4 86 9 159 11 161 2 2
99 5 216 6 242 2 276 8 363 66 233 157 205 511 -50 630 -93 43 -192 46 -217 6
-27 -42 9 -116 56 -118 72 -2 124 -27 169 -80 101 -118 48 -300 -101 -342 -32
-9 -107 -13 -237 -13 l-190 1 1 55 c1 48 7 196 19 425 2 39 6 131 10 205 13
293 26 524 29 527 1 2 180 3 398 3 383 1 397 2 422 21 34 27 36 79 4 109 -21
19 -33 20 -421 20 l-399 0 7 123 c3 67 8 207 10 312 l4 190 1022 0 c776 0
1023 -3 1031 -12 22 -26 -6 -106 -56 -161 -53 -60 -5 -57 -917 -62 -805 -5
-838 -6 -858 -24 -28 -26 -28 -79 1 -106 19 -17 35 -20 117 -20 53 -1 373 -2
711 -3 l615 -2 3 -25 c10 -70 -59 -166 -138 -193 -35 -12 -99 -16 -285 -16
-222 -2 -241 -3 -260 -21 -27 -25 -29 -69 -6 -100 21 -26 46 -29 240 -30 l64
0 -5 -49 c-6 -66 -49 -127 -113 -160 l-49 -25 -481 -1 c-524 -1 -518 0 -531
-58 -8 -37 11 -74 45 -85 33 -10 954 -9 1001 2 150 35 274 180 281 330 3 42 5
46 28 47 184 6 343 150 358 326 3 32 6 59 7 59 0 1 27 4 60 7 90 8 188 62 254
142 29 34 64 128 69 184 8 96 -36 170 -117 197 -14 4 -514 8 -1111 9 l-1085 0
-32 27 c-62 52 -175 81 -263 67z m139 -166 c47 -22 99 -88 107 -134 4 -22 4
-110 0 -197 -6 -154 -9 -199 -20 -412 -8 -162 -15 -295 -20 -410 -6 -145 -14
-309 -20 -410 -3 -47 -8 -152 -11 -235 -3 -82 -8 -168 -9 -190 -2 -22 -3 -49
-4 -60 -1 -19 -7 -21 -111 -20 l-110 0 -1 25 c-1 14 -2 50 -4 80 -8 156 -16
306 -20 405 -3 61 -7 148 -10 195 -3 47 -7 141 -10 210 -3 69 -8 157 -10 195
-2 39 -7 131 -10 205 -4 74 -8 162 -10 195 -2 33 -6 139 -10 236 -7 163 -6
179 13 220 48 108 164 152 270 102z m5 -2222 c10 -1 16 -4 13 -9 -2 -4 -8 -79
-11 -167 -7 -141 -11 -224 -14 -247 -1 -5 -37 -8 -81 -8 -44 0 -81 3 -81 8 -2
12 -7 98 -14 267 l-7 160 88 -1 c49 -1 97 -2 107 -3z m-22 -593 c1 -22 -3
-151 -6 -190 -1 -21 -6 -113 -10 -205 -4 -92 -9 -193 -10 -223 -2 -30 -7 -125
-10 -210 -5 -113 -11 -159 -21 -170 -12 -12 -16 -12 -28 0 -10 11 -16 55 -20
160 -4 80 -8 188 -11 240 -9 159 -14 259 -21 405 -3 77 -7 151 -8 165 -1 14
-1 28 1 33 7 13 143 8 144 -5z"/>
<path d="M1832 2474 c-234 -69 -337 -330 -215 -541 52 -91 122 -118 163 -66
25 32 21 74 -9 108 -36 39 -55 89 -54 145 1 71 22 118 72 163 43 39 82 54 147
56 33 1 64 38 64 76 0 66 -67 89 -168 59z"/>
<path d="M3047 1098 c-25 -20 -35 -58 -25 -102 22 -96 -30 -200 -120 -240 -74
-33 -89 -116 -26 -145 35 -16 46 -14 102 15 140 73 221 238 195 401 -10 66
-80 105 -126 71z"/>
</g>
</svg>
